<svg><defs>
<svg id="avatar"><path d="M 12,4C 14.2091,4 16,5.79086 16,8C 16,10.2091 14.2091,12 12,12C 9.79086,12 8,10.2091 8,8C 8,5.79086 9.79086,4 12,4 Z M 12,14C 16.4183,14 20,15.7909 20,18L 20,20L 4,20L 4,18C 4,15.7909 7.58172,14 12,14 Z"/></svg>
<svg id="dots-vertical"><path d="M 12,16C 13.1046,16 14,16.8954 14,18C 14,19.1046 13.1046,20 12,20C 10.8954,20 10,19.1046 10,18C 10,16.8954 10.8954,16 12,16 Z M 12,10C 13.1046,10 14,10.8954 14,12C 14,13.1046 13.1046,14 12,14C 10.8954,14 10,13.1046 10,12C 10,10.8954 10.8954,10 12,10 Z M 12,4C 13.1046,4 14,4.89544 14,6C 14,7.10457 13.1046,8 12,8C 10.8954,8 10,7.10457 10,6C 10,4.89543 10.8954,4 12,4 Z"/></svg>
<svg id="menue"><path d="M 3,6L 21,6L 21,8L 3,8L 3,6 Z M 3,11L 21,11L 21,13L 3,13L 3,11 Z M 3,16L 21,16L 21,18L 3,18L 3,16 Z"/></svg>
<svg id="light-bulb"><path d="M 11.9994,1.99807C 15.8654,1.99807 18.9994,5.13206 18.9994,8.99807C 18.9994,11.3761 17.8114,13.4731 15.9994,14.7381L 15.9994,16.9981C 15.9994,17.5501 15.5514,17.9981 14.9994,17.9981L 8.99941,17.9981C 8.44741,17.9981 7.99941,17.5501 7.99941,16.9981L 7.99941,14.7381C 6.18742,13.4731 4.99941,11.3761 4.99941,8.99807C 4.99941,5.13206 8.1334,1.99807 11.9994,1.99807 Z M 8.99941,20.9981L 8.99941,19.9981L 14.9994,19.9981L 14.9994,20.9981C 14.9994,21.5501 14.5514,21.9981 13.9994,21.9981L 9.99941,21.9981C 9.44741,21.9981 8.99941,21.5501 8.99941,20.9981 Z M 12,4C 9.23857,4 7,6.23858 7,9C 7,11.0503 8.23409,12.8124 10,13.584L 10,16L 14,16L 14,13.584C 15.7659,12.8124 17,11.0503 17,9C 17,6.23858 14.7614,4 12,4 Z"/></svg>
</defs></svg>